<?xml version="1.0" encoding="UTF-8"?>
<!--Generator: Apple Native CoreSVG 341-->
<!DOCTYPE svg
PUBLIC "-//W3C//DTD SVG 1.1//EN"
       "http://www.w3.org/Graphics/SVG/1.1/DTD/svg11.dtd">
<svg version="1.1" xmlns="http://www.w3.org/2000/svg" xmlns:xlink="http://www.w3.org/1999/xlink" viewBox="0 0 254.395 254.59">
 <g>
  <rect height="254.59" opacity="0" width="254.395" x="0" y="0"/>
  <path d="M254.395 127.246C254.395 197.266 197.266 254.395 127.148 254.395C57.1289 254.395 0 197.266 0 127.246C0 57.1289 57.1289 0 127.148 0C197.266 0 254.395 57.1289 254.395 127.246ZM117.09 60.5469C117.09 62.6953 117.871 64.5508 119.434 66.0156L130.687 77.1125C128.809 77.0634 126.983 77.0508 125.195 77.0508C95.8984 77.0508 70.3125 101.758 70.3125 133.105C70.3125 165.039 95.6055 190.527 127.148 190.527C158.789 190.527 183.984 165.039 183.984 133.496C183.984 129.297 180.371 125.781 176.27 125.781C171.973 125.781 168.457 129.297 168.457 133.496C168.457 156.543 150.098 175 127.148 175C104.102 175 85.8398 156.543 85.8398 133.496C85.8398 110.449 104.102 92.1875 127.148 92.1875C129.767 92.1875 132.307 92.2654 134.645 92.3953L119.434 107.324C117.871 108.887 117.09 110.645 117.09 112.793C117.09 116.797 120.215 119.922 124.414 119.922C126.172 119.922 128.223 119.043 129.297 117.871L154.98 91.9922C156.445 90.625 157.129 88.6719 157.129 86.7188C157.129 84.7656 156.445 82.7148 154.98 81.4453L129.297 55.5664C128.32 54.4922 126.172 53.418 124.414 53.418C120.215 53.418 117.09 56.6406 117.09 60.5469Z" fill="white" fill-opacity="0.85"/>
 </g>
</svg>
